<mxfile host="Electron" agent="Mozilla/5.0 (Windows NT 10.0; Win64; x64) AppleWebKit/537.36 (KHTML, like Gecko) draw.io/26.2.2 Chrome/134.0.6998.178 Electron/35.1.2 Safari/537.36" version="26.2.2">
  <diagram name="Page-1" id="xAdAGTWuR1CEKuJv0V0U">
    <mxGraphModel dx="1163" dy="626" grid="1" gridSize="10" guides="1" tooltips="1" connect="1" arrows="1" fold="1" page="1" pageScale="1" pageWidth="850" pageHeight="1100" math="0" shadow="0">
      <root>
        <mxCell id="0" />
        <mxCell id="1" parent="0" />
        <mxCell id="J6cz6Zyrws3GsBAFb2_v-21" value="" style="edgeStyle=orthogonalEdgeStyle;rounded=0;orthogonalLoop=1;jettySize=auto;html=1;" edge="1" parent="1" source="J6cz6Zyrws3GsBAFb2_v-1" target="J6cz6Zyrws3GsBAFb2_v-2">
          <mxGeometry relative="1" as="geometry" />
        </mxCell>
        <mxCell id="J6cz6Zyrws3GsBAFb2_v-22" value="" style="edgeStyle=orthogonalEdgeStyle;rounded=0;orthogonalLoop=1;jettySize=auto;html=1;entryX=0;entryY=0.25;entryDx=0;entryDy=0;" edge="1" parent="1" source="J6cz6Zyrws3GsBAFb2_v-1" target="J6cz6Zyrws3GsBAFb2_v-4">
          <mxGeometry relative="1" as="geometry" />
        </mxCell>
        <mxCell id="J6cz6Zyrws3GsBAFb2_v-24" value="" style="edgeStyle=orthogonalEdgeStyle;rounded=0;orthogonalLoop=1;jettySize=auto;html=1;entryX=0.5;entryY=0;entryDx=0;entryDy=0;" edge="1" parent="1" source="J6cz6Zyrws3GsBAFb2_v-1" target="J6cz6Zyrws3GsBAFb2_v-3">
          <mxGeometry relative="1" as="geometry">
            <mxPoint x="175" y="110" as="targetPoint" />
          </mxGeometry>
        </mxCell>
        <mxCell id="J6cz6Zyrws3GsBAFb2_v-1" value="&lt;font style=&quot;font-size: 18px;&quot;&gt;Movie Magic Platform&lt;/font&gt;" style="rounded=1;whiteSpace=wrap;html=1;fillColor=#FFE599;strokeColor=#FF8000;" vertex="1" parent="1">
          <mxGeometry x="330" y="80" width="230" height="60" as="geometry" />
        </mxCell>
        <mxCell id="J6cz6Zyrws3GsBAFb2_v-16" value="" style="edgeStyle=orthogonalEdgeStyle;rounded=0;orthogonalLoop=1;jettySize=auto;html=1;entryX=0.672;entryY=-0.053;entryDx=0;entryDy=0;entryPerimeter=0;" edge="1" parent="1" source="J6cz6Zyrws3GsBAFb2_v-2" target="J6cz6Zyrws3GsBAFb2_v-6">
          <mxGeometry relative="1" as="geometry" />
        </mxCell>
        <mxCell id="J6cz6Zyrws3GsBAFb2_v-2" value="&lt;font style=&quot;font-size: 14px;&quot;&gt;Sentiment Analysis&lt;/font&gt;&lt;div&gt;VADER&lt;/div&gt;" style="rounded=1;whiteSpace=wrap;html=1;fillColor=#E1D5E7;strokeColor=#B5739D;" vertex="1" parent="1">
          <mxGeometry x="340" y="200" width="145" height="50" as="geometry" />
        </mxCell>
        <mxCell id="J6cz6Zyrws3GsBAFb2_v-12" value="" style="edgeStyle=orthogonalEdgeStyle;rounded=0;orthogonalLoop=1;jettySize=auto;html=1;entryX=0.606;entryY=-0.133;entryDx=0;entryDy=0;entryPerimeter=0;" edge="1" parent="1" source="J6cz6Zyrws3GsBAFb2_v-3" target="J6cz6Zyrws3GsBAFb2_v-7">
          <mxGeometry relative="1" as="geometry" />
        </mxCell>
        <mxCell id="J6cz6Zyrws3GsBAFb2_v-3" value="&lt;font style=&quot;font-size: 14px;&quot;&gt;Movie Recommendation&lt;/font&gt;&lt;div&gt;Content-Based Filtering&lt;/div&gt;" style="rounded=1;whiteSpace=wrap;html=1;fillColor=#A9C4EB;strokeColor=#007FFF;" vertex="1" parent="1">
          <mxGeometry x="60" y="200" width="160" height="50" as="geometry" />
        </mxCell>
        <mxCell id="J6cz6Zyrws3GsBAFb2_v-18" value="" style="edgeStyle=orthogonalEdgeStyle;rounded=0;orthogonalLoop=1;jettySize=auto;html=1;" edge="1" parent="1" source="J6cz6Zyrws3GsBAFb2_v-4" target="J6cz6Zyrws3GsBAFb2_v-5">
          <mxGeometry relative="1" as="geometry" />
        </mxCell>
        <mxCell id="J6cz6Zyrws3GsBAFb2_v-4" value="&lt;font style=&quot;font-size: 14px;&quot;&gt;Weather Prediction&lt;/font&gt;&lt;div&gt;Random Forest Regressor&lt;/div&gt;" style="rounded=1;whiteSpace=wrap;html=1;fillColor=#B9E0A5;strokeColor=#00FF00;" vertex="1" parent="1">
          <mxGeometry x="630" y="200" width="170" height="50" as="geometry" />
        </mxCell>
        <mxCell id="J6cz6Zyrws3GsBAFb2_v-20" value="" style="edgeStyle=orthogonalEdgeStyle;rounded=0;orthogonalLoop=1;jettySize=auto;html=1;entryX=1;entryY=0.5;entryDx=0;entryDy=0;" edge="1" parent="1" source="J6cz6Zyrws3GsBAFb2_v-5" target="J6cz6Zyrws3GsBAFb2_v-6">
          <mxGeometry relative="1" as="geometry">
            <mxPoint x="710" y="430" as="targetPoint" />
          </mxGeometry>
        </mxCell>
        <mxCell id="J6cz6Zyrws3GsBAFb2_v-5" value="&lt;font style=&quot;font-size: 14px;&quot;&gt;Weather API&lt;/font&gt;" style="rounded=1;whiteSpace=wrap;html=1;align=center;fillColor=#D5E8D4;" vertex="1" parent="1">
          <mxGeometry x="660" y="320" width="100" height="40" as="geometry" />
        </mxCell>
        <mxCell id="J6cz6Zyrws3GsBAFb2_v-14" value="" style="edgeStyle=orthogonalEdgeStyle;rounded=0;orthogonalLoop=1;jettySize=auto;html=1;entryX=0.308;entryY=0.944;entryDx=0;entryDy=0;entryPerimeter=0;exitX=0.5;exitY=0;exitDx=0;exitDy=0;" edge="1" parent="1" source="J6cz6Zyrws3GsBAFb2_v-6" target="J6cz6Zyrws3GsBAFb2_v-2">
          <mxGeometry relative="1" as="geometry">
            <mxPoint x="385" y="400" as="sourcePoint" />
            <mxPoint x="385" y="260" as="targetPoint" />
          </mxGeometry>
        </mxCell>
        <mxCell id="J6cz6Zyrws3GsBAFb2_v-6" value="&lt;font style=&quot;font-size: 18px;&quot;&gt;Web Interface&lt;/font&gt;" style="rounded=1;whiteSpace=wrap;html=1;fillColor=#F19C99;strokeColor=#EA6B66;" vertex="1" parent="1">
          <mxGeometry x="300" y="400" width="170" height="60" as="geometry" />
        </mxCell>
        <mxCell id="J6cz6Zyrws3GsBAFb2_v-10" value="" style="edgeStyle=orthogonalEdgeStyle;rounded=0;orthogonalLoop=1;jettySize=auto;html=1;entryX=0.5;entryY=1;entryDx=0;entryDy=0;" edge="1" parent="1" source="J6cz6Zyrws3GsBAFb2_v-8" target="J6cz6Zyrws3GsBAFb2_v-7">
          <mxGeometry relative="1" as="geometry" />
        </mxCell>
        <mxCell id="J6cz6Zyrws3GsBAFb2_v-11" value="" style="edgeStyle=orthogonalEdgeStyle;rounded=0;orthogonalLoop=1;jettySize=auto;html=1;entryX=0;entryY=0.5;entryDx=0;entryDy=0;" edge="1" parent="1" source="J6cz6Zyrws3GsBAFb2_v-7" target="J6cz6Zyrws3GsBAFb2_v-6">
          <mxGeometry relative="1" as="geometry">
            <mxPoint x="250" y="440" as="targetPoint" />
          </mxGeometry>
        </mxCell>
        <mxCell id="J6cz6Zyrws3GsBAFb2_v-7" value="Description" style="rounded=1;whiteSpace=wrap;html=1;fillColor=#D4E1F5;" vertex="1" parent="1">
          <mxGeometry x="80" y="320" width="100" height="30" as="geometry" />
        </mxCell>
        <mxCell id="J6cz6Zyrws3GsBAFb2_v-8" value="DataSet" style="rounded=0;whiteSpace=wrap;html=1;fillColor=#E6D0DE;" vertex="1" parent="1">
          <mxGeometry x="80" y="410" width="100" height="30" as="geometry" />
        </mxCell>
        <mxCell id="J6cz6Zyrws3GsBAFb2_v-9" value="Recommended Movies" style="text;html=1;align=center;verticalAlign=middle;whiteSpace=wrap;rounded=0;" vertex="1" parent="1">
          <mxGeometry x="270" y="350" width="30" height="30" as="geometry" />
        </mxCell>
        <mxCell id="J6cz6Zyrws3GsBAFb2_v-15" value="Review" style="text;html=1;align=center;verticalAlign=middle;whiteSpace=wrap;rounded=0;" vertex="1" parent="1">
          <mxGeometry x="330" y="270" width="60" height="30" as="geometry" />
        </mxCell>
        <mxCell id="J6cz6Zyrws3GsBAFb2_v-17" value="Sentiment" style="text;html=1;align=center;verticalAlign=middle;whiteSpace=wrap;rounded=0;" vertex="1" parent="1">
          <mxGeometry x="425" y="290" width="60" height="30" as="geometry" />
        </mxCell>
      </root>
    </mxGraphModel>
  </diagram>
</mxfile>
